<!DOCTYPE svg PUBLIC "-//W3C//DTD SVG 1.1//EN" "http://www.w3.org/Graphics/SVG/1.1/DTD/svg11.dtd">

<!-- Uploaded to: SVG Repo, www.svgrepo.com, Transformed by: SVG Repo Mixer Tools -->
<svg fill="#f48982" height="600px" width="600px" version="1.1" id="Layer_1" xmlns="http://www.w3.org/2000/svg" xmlns:xlink="http://www.w3.org/1999/xlink" viewBox="0 0 484.849 484.849" xml:space="preserve" stroke="#f48982">

<g id="SVGRepo_bgCarrier" stroke-width="0"/>

<g id="SVGRepo_tracerCarrier" stroke-linecap="round" stroke-linejoin="round"/>

<g id="SVGRepo_iconCarrier"> <g> <circle cx="294.924" cy="194.924" r="44.138"/> <path d="M374.924,334.062c0-44.183-35.817-80-80-80c-44.183,0-80,35.817-80,80H374.924z"/> <path d="M49.924,0v113.712h-22.5v30h22.5v83.712h-25v30h25v83.712h-25v30h25v113.712h410V0H49.924z M79.924,371.136h25v-30h-25 v-83.712h25v-30h-25v-83.712h25v-30h-25V30h50v424.849h-50V371.136z M429.924,454.849h-270V30h270V454.849z"/> </g> </g>

</svg>